HIERARCHY
ROOT Hips
{
	OFFSET 0.00000 0.00000 0.00000
	CHANNELS 6 Xposition Yposition Zposition Zrotation Yrotation Xrotation 
	JOINT LHipJoint
	{
		OFFSET 0 0 0
		CHANNELS 3 Zrotation Yrotation Xrotation
		JOINT LeftHip
		{
			OFFSET 1.59801 -1.77853 0.57028
			CHANNELS 3 Zrotation Yrotation Xrotation
			JOINT LeftKnee
			{
				OFFSET 2.39439 -6.57854 0.00000
				CHANNELS 3 Zrotation Yrotation Xrotation
				JOINT LeftAnkle
				{
					OFFSET 2.69334 -7.39989 0.00000
					CHANNELS 3 Zrotation Yrotation Xrotation
					JOINT LeftToe
					{
						OFFSET 0.09553 -0.26245 1.73747
						CHANNELS 3 Zrotation Yrotation Xrotation
						End Site
						{
							OFFSET 0.00000 -0.00000 0.89391
						}
					}
				}
			}
		}
	}
	JOINT RHipJoint
	{
		OFFSET 0 0 0
		CHANNELS 3 Zrotation Yrotation Xrotation
		JOINT RightHip
		{
			OFFSET -1.54704 -1.77852 0.57028
			CHANNELS 3 Zrotation Yrotation Xrotation
			JOINT RightKnee
			{
				OFFSET -2.40286 -6.60180 0.00000
				CHANNELS 3 Zrotation Yrotation Xrotation
				JOINT RightAnkle
				{
					OFFSET -2.63873 -7.24984 0.00000
					CHANNELS 3 Zrotation Yrotation Xrotation
					JOINT RightToe
					{
						OFFSET -0.15631 -0.42945 1.84436
						CHANNELS 3 Zrotation Yrotation Xrotation
						End Site
						{
							OFFSET -0.00000 -0.00000 0.95734
						}
					}
				}
			}
		}
	}
	JOINT lowerback
	{
		OFFSET 0 0 0
		CHANNELS 3 Zrotation Yrotation Xrotation
		JOINT Chest
		{
			OFFSET -0.00436 1.89866 -0.04018
			CHANNELS 3 Zrotation Yrotation Xrotation
			JOINT Chest2
			{
				OFFSET 0.02031 1.88273 0.09634
				CHANNELS 3 Zrotation Yrotation Xrotation
				JOINT lowerneck
				{
					OFFSET 0 0 0
					CHANNELS 3 Zrotation Yrotation Xrotation
					JOINT Neck
					{
						OFFSET -0.13105 1.89371 0.23083
						CHANNELS 3 Zrotation Yrotation Xrotation
						JOINT Head
						{
							OFFSET 0.17062 1.83990 -0.54062
							CHANNELS 3 Zrotation Yrotation Xrotation
							End Site
							{
								OFFSET 0.04576 1.94782 -0.21839
							}
						}
					}
				}
				JOINT LeftCollar
				{
					OFFSET 0 0 0
					CHANNELS 3 Zrotation Yrotation Xrotation
					JOINT LeftShoulder
					{
						OFFSET 3.12424 1.09204 0.22226
CHANNELS 3 Zrotation Xrotation Yrotation
						JOINT LeftElbow
						{
OFFSET 0 -5.292770 0.000000
CHANNELS 3 Zrotation Xrotation Yrotation
							JOINT LeftWrist
							{
OFFSET 0 -2.852260 0.000000
CHANNELS 3 Zrotation Xrotation Yrotation
								JOINT lhand
								{
									OFFSET 0 0 0
CHANNELS 3 Zrotation Xrotation Yrotation
									JOINT LFingers
									{
OFFSET 0 -0.602100 0.000000
CHANNELS 3 Zrotation Xrotation Yrotation
										End Site
										{
OFFSET 0 -0.485430 0.000000
										}
									}
								}
								JOINT LThumb
								{
OFFSET 0 0.000000 0.000000
CHANNELS 3 Zrotation Xrotation Yrotation
									End Site
									{
OFFSET 0 -0.492840 0.492840
									}
								}
							}
						}
					}
				}
				JOINT RightCollar
				{
					OFFSET 0 0 0
					CHANNELS 3 Zrotation Yrotation Xrotation
					JOINT RightShoulder
					{
						OFFSET -2.91709 1.01504 0.30199
CHANNELS 3 Zrotation Xrotation Yrotation
						JOINT RightElbow
						{
OFFSET 0 -5.133040 0.000000
CHANNELS 3 Zrotation Xrotation Yrotation
							JOINT RightWrist
							{
OFFSET 0 -2.743050 0.000000
CHANNELS 3 Zrotation Xrotation Yrotation
								JOINT rhand
								{
									OFFSET 0 0 0
CHANNELS 3 Zrotation Xrotation Yrotation
									JOINT RFingers
									{
OFFSET 0 -0.767980 0.000000
CHANNELS 3 Zrotation Xrotation Yrotation
										End Site
										{
OFFSET 0 -0.619160 0.000000
										}
									}
								}
								JOINT RThumb
								{
OFFSET 0 0.000000 0.000000
CHANNELS 3 Zrotation Xrotation Yrotation
									End Site
									{
OFFSET 0 -0.628620 0.628620
									}
								}
							}
						}
					}
				}
			}
		}
	}
}
MOTION
Frames: 4
Frame Time: 0.008333333333333333
-0.179715 15.941050 -2.297725 2.002708 2.552744 35.350913 0.000000 0.000000 0.000000 -1.122335 -23.089584 -68.207260 7.451788 15.700788 50.563000 0.803685 -5.775559 -15.978604 1.479505 -7.684204 -21.759553 0.000000 0.000000 0.000000 1.829984 19.586041 -68.326204 -8.138168 -16.219925 53.058935 -1.314772 -0.157075 -21.745992 -1.228615 7.029852 -19.803708 -3.440313 0.643514 21.263589 0.767105 0.114801 1.346127 2.782969 0.240430 -10.464354 -18.406881 -10.075891 -3.523305 31.707863 -10.623486 -17.546008 13.425973 -5.887660 -1.056070 0.000000 0.000000 0.000000 3.901082 -63.658122 -43.836021 107.618418 -58.793693 75.196165 -15.250585 7.422943 -33.446635 0.000000 0.000000 0.000000 -7.125000 0.000000 0.000000 -50.710605 56.065167 16.775779 0.000000 0.000000 0.000000 2.453477 -57.655580 42.278183 -109.468316 -58.518279 -76.776203 12.224742 30.753862 -1.172775 0.000000 0.000000 0.000000 7.125000 0.000000 0.000000 28.978071 27.986927 13.682062
-0.212169 16.143324 -2.243718 2.464564 2.549306 36.512466 0.000000 0.000000 0.000000 -1.544771 -23.331167 -66.851853 6.394078 14.798474 46.541346 0.680053 -5.053381 -14.688733 1.607740 -7.996187 -22.702512 0.000000 0.000000 0.000000 0.946735 20.204643 -67.265181 -7.205273 -15.501409 49.644848 -1.136245 -1.288955 -20.644776 -1.166837 6.857118 -19.292721 -2.904220 0.510801 20.316978 0.467420 0.062092 1.153530 2.155138 0.178682 -10.151244 -18.409618 -10.311099 -3.915802 30.590107 -11.026717 -17.310258 12.899578 -5.994746 -0.944053 0.000000 0.000000 0.000000 5.852301 -60.918654 -43.510117 107.448882 -58.817624 75.051175 -14.103641 7.342027 -33.350433 0.000000 0.000000 0.000000 -7.125000 0.000000 0.000000 -49.627824 56.240384 16.497549 0.000000 0.000000 0.000000 3.166607 -54.921831 43.978927 -108.137107 -58.719723 -75.639686 13.217423 30.344913 -2.079480 0.000000 0.000000 0.000000 7.125000 0.000000 0.000000 29.397190 27.113126 14.659939
-0.227001 16.477081 -2.153695 2.775145 3.097763 38.032617 0.000000 0.000000 0.000000 -1.710968 -23.873873 -64.025062 4.749727 13.095271 39.727831 0.500356 -4.017704 -12.595168 1.388779 -7.456077 -21.073752 0.000000 0.000000 0.000000 0.875393 20.278834 -64.692558 -5.628211 -14.057394 43.469249 -0.843604 -2.949029 -18.656658 -1.208397 6.973689 -19.637395 -1.830336 0.248963 19.198938 0.248969 -0.039129 0.946940 1.325828 0.072527 -9.753553 -17.824747 -10.581499 -4.421445 30.270686 -11.406747 -17.051503 12.569555 -6.160555 -0.767660 0.000000 0.000000 0.000000 5.366495 -56.406313 -44.996884 106.461447 -58.950956 74.205786 -16.448329 6.323673 -31.622744 0.000000 0.000000 0.000000 -7.125000 0.000000 0.000000 -49.893894 54.542136 14.365613 0.000000 0.000000 0.000000 3.054815 -51.645261 45.278580 -106.173820 -58.987911 -73.959357 14.345171 28.864704 -1.885338 0.000000 0.000000 0.000000 7.125000 0.000000 0.000000 30.186608 27.210813 15.101247
-0.230646 16.535133 -2.122960 2.852024 3.751274 38.505023 0.000000 0.000000 0.000000 -1.221824 -24.468595 -63.724597 4.476544 12.768564 38.508702 0.473948 -3.411747 -12.283969 1.684812 -8.176260 -23.250616 0.000000 0.000000 0.000000 1.492379 19.399547 -64.375727 -5.367380 -13.785702 42.386280 -0.846765 -2.498424 -18.458225 -1.168829 6.859979 -19.302326 -1.391246 -0.048671 19.023463 0.481849 -0.308496 0.784238 1.402278 -0.066438 -9.826800 -17.571633 -10.549083 -4.883735 31.020719 -11.357418 -16.463971 12.750871 -6.130373 -0.469899 0.000000 0.000000 0.000000 6.250230 -55.728793 -44.630828 105.444937 -59.079177 73.334339 -15.575118 6.851620 -30.888231 0.000000 0.000000 0.000000 -7.125000 0.000000 0.000000 -48.460126 54.189115 13.314214 0.000000 0.000000 0.000000 2.282553 -52.330941 45.135575 -105.320112 -59.094280 -73.227212 13.714014 28.667712 -2.254957 0.000000 0.000000 0.000000 7.125000 0.000000 0.000000 29.675951 26.923798 15.002009
